<svg xmlns="http://www.w3.org/2000/svg" viewBox="0 0 220 220" width="220" height="220" aria-label="TranspJardim logo">
  <g fill="none" fill-rule="evenodd" stroke-linecap="round" stroke-linejoin="round">
    <circle cx="90" cy="90" r="69" stroke="#FFFFFF" stroke-width="20"/>
    <circle cx="90" cy="90" r="69" stroke="#052A66" stroke-width="14"/>

    <path d="M35 95C37 67 55 46 82 39" stroke="#FFFFFF" stroke-width="10"/>
    <path d="M35 95C37 67 55 46 82 39" stroke="#0E3C7D" stroke-width="6"/>

    <rect x="60" y="126" width="16" height="34" rx="3" fill="#0D3E80" stroke="#FFFFFF" stroke-width="2.5"/>
    <rect x="83" y="112" width="16" height="48" rx="3" fill="#0C9D6D" stroke="#FFFFFF" stroke-width="2.5"/>
    <rect x="106" y="92" width="16" height="68" rx="3" fill="#09A173" stroke="#FFFFFF" stroke-width="2.5"/>

    <rect x="121" y="79" width="14" height="14" rx="2" fill="#09A173" stroke="#FFFFFF" stroke-width="2.5"/>
    <path d="M96 88L106 88L96 98Z" fill="#09A173" stroke="#FFFFFF" stroke-width="2"/>

    <path d="M58 124L84 149L116 112" stroke="#FFFFFF" stroke-width="18"/>
    <path d="M58 124L84 149L116 112" stroke="#10A97A" stroke-width="14"/>

    <path d="M144 144L196 196" stroke="#FFFFFF" stroke-width="24"/>
    <path d="M144 144L196 196" stroke="#052A66" stroke-width="18"/>
  </g>
</svg>
